# xmcd
#
# Track frame offsets: 
#        150
#        16728
#        27188
#        41420
#        58575
#        69560
#        86022
#        99038
#        110612
#
# Disc length: 1664 seconds
#
# Revision: 0
# Processed by: cddbd v1.5.2PL0 Copyright (c) Steve Scherf et al.
# Submitted via: ExactAudioCopy v0.99pb5
#
DISCID=64067e09
DTITLE=Rodney Hayden - Rodney Hayden
DYEAR=2011
DGENRE=Country
TTITLE0=The Habit
TTITLE1=The Brazos
TTITLE2=The Ballad of Jesse James
TTITLE3=Sonora's Death Row
TTITLE4=Gypsy Davey
TTITLE5=Red River Valley
TTITLE6=Chopo
TTITLE7=The Cowboy Song
TTITLE8=I Ride an Old Paint
EXTD=
EXTT0=
EXTT1=
EXTT2=
EXTT3=
EXTT4=
EXTT5=
EXTT6=
EXTT7=
EXTT8=
PLAYORDER=
